<svg width="24" height="24" viewBox="0 0 24 24" fill="none" xmlns="http://www.w3.org/2000/svg">
<path d="M13.4987 19C17.2697 19 19.1557 19 20.3267 17.828C21.4987 16.657 21.4987 14.771 21.4987 11C21.4987 7.229 21.4987 5.343 20.3267 4.172C19.1557 3 17.2697 3 13.4987 3H9.49872C5.72772 3 3.84172 3 2.67072 4.172C1.49872 5.343 1.49872 7.229 1.49872 11C1.49872 14.771 1.49872 16.657 2.67072 17.828C3.32372 18.482 4.19872 18.771 5.49872 18.898" stroke="#D4D4D4" stroke-width="2" stroke-linecap="round" stroke-linejoin="round"/>
<path d="M13.4987 19C12.2627 19 10.9007 19.5 9.65772 20.145C7.65972 21.182 6.66071 21.701 6.16871 21.37C5.67671 21.04 5.76971 20.015 5.95671 17.966L5.99871 17.5" stroke="#D4D4D4" stroke-width="2" stroke-linecap="round"/>
</svg>
