<svg width="58" height="58" viewBox="0 0 58 58" fill="none" xmlns="http://www.w3.org/2000/svg">
<path d="M29 32C30.6569 32 32 30.6569 32 29C32 27.3431 30.6569 26 29 26C27.3431 26 26 27.3431 26 29C26 30.6569 27.3431 32 29 32Z" fill="#D4D4D4"/>
<path d="M40.6655 28.2185C39.7387 25.8573 38.1393 23.82 36.0657 22.3591C33.9921 20.8982 31.5354 20.078 29 20C26.4646 20.078 24.0079 20.8982 21.9343 22.3591C19.8607 23.82 18.2613 25.8573 17.3345 28.2185L17 29L17.3345 29.7815C18.2613 32.1427 19.8607 34.18 21.9343 35.6409C24.0079 37.1018 26.4646 37.922 29 38C31.5354 37.922 33.9921 37.1018 36.0657 35.6409C38.1393 34.18 39.7387 32.1427 40.6655 29.7815L41 29L40.6655 28.2185ZM29 35C27.8133 35 26.6533 34.6481 25.6666 33.9888C24.6799 33.3295 23.9108 32.3925 23.4567 31.2961C23.0026 30.1997 22.8838 28.9933 23.1153 27.8295C23.3468 26.6656 23.9182 25.5965 24.7574 24.7574C25.5965 23.9182 26.6656 23.3468 27.8295 23.1153C28.9933 22.8838 30.1997 23.0026 31.2961 23.4567C32.3925 23.9108 33.3295 24.6799 33.9888 25.6666C34.6481 26.6533 35 27.8133 35 29C34.998 30.5907 34.3652 32.1157 33.2404 33.2404C32.1157 34.3652 30.5907 34.998 29 35Z" fill="#D4D4D4"/>
<path d="M47.756 17.2044L29.756 6.70444C29.5266 6.57055 29.2657 6.5 29 6.5C28.7343 6.5 28.4734 6.57055 28.244 6.70444L10.244 17.2044C10.0175 17.3366 9.82966 17.5258 9.69912 17.7532C9.56858 17.9806 9.49992 18.2382 9.5 18.5004V39.5004C9.49992 39.7626 9.56858 40.0203 9.69912 40.2477C9.82966 40.4751 10.0175 40.6643 10.244 40.7964L28.244 51.2964C28.4734 51.4303 28.7343 51.5009 29 51.5009C29.2657 51.5009 29.5266 51.4303 29.756 51.2964L47.756 40.7964C47.9825 40.6643 48.1703 40.4751 48.3009 40.2477C48.4314 40.0203 48.5001 39.7626 48.5 39.5004V18.5004C48.5001 18.2382 48.4314 17.9806 48.3009 17.7532C48.1703 17.5258 47.9825 17.3366 47.756 17.2044ZM45.5 38.6394L29 48.2634L12.5 38.6394V19.3614L29 9.73744L45.5 19.3614V38.6394Z" fill="#D4D4D4"/>
</svg>
