<svg width="58" height="58" viewBox="0 0 58 58" fill="none" xmlns="http://www.w3.org/2000/svg">
<path d="M19.0494 20.9742C19.0444 21.0913 19.0634 21.2082 19.1053 21.3176C19.1472 21.427 19.211 21.5267 19.2928 21.6106C19.3746 21.6945 19.4727 21.7607 19.5811 21.8053C19.6895 21.8498 19.8058 21.8717 19.923 21.8696H22.9136C23.4139 21.8696 23.8126 21.46 23.8779 20.9634C24.2041 18.5854 25.8354 16.8526 28.7426 16.8526C31.2294 16.8526 33.5059 18.096 33.5059 21.0866C33.5059 23.3885 32.1501 24.447 30.0077 26.0565C27.5681 27.8291 25.636 29.899 25.7737 33.2594L25.7846 34.046C25.7884 34.2838 25.8856 34.5106 26.0551 34.6775C26.2247 34.8443 26.453 34.9378 26.6909 34.9377H29.6307C29.8711 34.9377 30.1016 34.8423 30.2715 34.6723C30.4415 34.5024 30.537 34.2718 30.537 34.0315V33.6509C30.537 31.0481 31.5266 30.2905 34.1982 28.2641C36.4059 26.5857 38.7077 24.7225 38.7077 20.8111C38.7077 15.3338 34.0822 12.6875 29.0181 12.6875C24.4252 12.6875 19.3937 14.8262 19.0494 20.9742ZM24.6935 41.8651C24.6935 43.7972 26.2341 45.2255 28.3547 45.2255C30.5624 45.2255 32.0812 43.7972 32.0812 41.8651C32.0812 39.8641 30.5587 38.4576 28.3511 38.4576C26.2341 38.4576 24.6935 39.8641 24.6935 41.8651Z" fill="#D4D4D4"/>
</svg>
