<svg width="24" height="24" viewBox="0 0 24 24" fill="none" xmlns="http://www.w3.org/2000/svg">
<path fill-rule="evenodd" clip-rule="evenodd" d="M15.9987 9C15.9987 10.0609 15.5773 11.0783 14.8271 11.8284C14.077 12.5786 13.0596 13 11.9987 13C10.9379 13 9.92044 12.5786 9.17029 11.8284C8.42015 11.0783 7.99872 10.0609 7.99872 9C7.99872 7.93913 8.42015 6.92172 9.17029 6.17157C9.92044 5.42143 10.9379 5 11.9987 5C13.0596 5 14.077 5.42143 14.8271 6.17157C15.5773 6.92172 15.9987 7.93913 15.9987 9ZM13.9987 9C13.9987 9.53043 13.788 10.0391 13.4129 10.4142C13.0379 10.7893 12.5292 11 11.9987 11C11.4683 11 10.9596 10.7893 10.5845 10.4142C10.2094 10.0391 9.99872 9.53043 9.99872 9C9.99872 8.46957 10.2094 7.96086 10.5845 7.58579C10.9596 7.21071 11.4683 7 11.9987 7C12.5292 7 13.0379 7.21071 13.4129 7.58579C13.788 7.96086 13.9987 8.46957 13.9987 9Z" fill="#D4D4D4"/>
<path fill-rule="evenodd" clip-rule="evenodd" d="M11.9987 1C5.92372 1 0.998718 5.925 0.998718 12C0.998718 18.075 5.92372 23 11.9987 23C18.0737 23 22.9987 18.075 22.9987 12C22.9987 5.925 18.0737 1 11.9987 1ZM2.99872 12C2.99872 14.09 3.71172 16.014 4.90672 17.542C5.74595 16.4399 6.82862 15.5467 8.07015 14.9323C9.31168 14.3179 10.6785 13.9988 12.0637 14C13.431 13.9987 14.7806 14.3095 16.0096 14.9088C17.2387 15.508 18.3147 16.3799 19.1557 17.458C20.0222 16.3216 20.6056 14.9952 20.8576 13.5886C21.1097 12.182 21.0231 10.7355 20.6052 9.36898C20.1873 8.00243 19.4499 6.75505 18.4542 5.73004C17.4585 4.70503 16.233 3.93186 14.8791 3.47451C13.5252 3.01716 12.0819 2.88877 10.6686 3.09997C9.25524 3.31117 7.91251 3.85589 6.75149 4.68905C5.59047 5.52222 4.64453 6.61987 3.99195 7.8912C3.33937 9.16252 2.9989 10.571 2.99872 12ZM11.9987 21C9.93267 21.0031 7.92898 20.2923 6.32672 18.988C6.97165 18.0647 7.83006 17.3109 8.82891 16.7907C9.82777 16.2705 10.9375 15.9992 12.0637 16C13.1759 15.9991 14.2722 16.2636 15.2616 16.7714C16.2511 17.2793 17.1051 18.0159 17.7527 18.92C16.138 20.2667 14.1013 21.0029 11.9987 21Z" fill="#D4D4D4"/>
</svg>
