<svg width="24" height="24" viewBox="0 0 24 24" fill="none" xmlns="http://www.w3.org/2000/svg">
<path d="M7.38124 8.679C7.37919 8.72744 7.38706 8.77579 7.40439 8.82107C7.42171 8.86636 7.44811 8.90762 7.48197 8.94232C7.51583 8.97703 7.55643 9.00444 7.60128 9.02287C7.64612 9.0413 7.69426 9.05036 7.74274 9.0495H8.98024C9.18724 9.0495 9.35224 8.88 9.37924 8.6745C9.51424 7.6905 10.1892 6.9735 11.3922 6.9735C12.4212 6.9735 13.3632 7.488 13.3632 8.7255C13.3632 9.678 12.8022 10.116 11.9157 10.782C10.9062 11.5155 10.1067 12.372 10.1637 13.7625L10.1682 14.088C10.1698 14.1864 10.21 14.2803 10.2802 14.3493C10.3503 14.4183 10.4448 14.457 10.5432 14.457H11.7597C11.8592 14.457 11.9546 14.4175 12.0249 14.3472C12.0952 14.2768 12.1347 14.1815 12.1347 14.082V13.9245C12.1347 12.8475 12.5442 12.534 13.6497 11.6955C14.5632 11.001 15.5157 10.23 15.5157 8.6115C15.5157 6.345 13.6017 5.25 11.5062 5.25C9.60574 5.25 7.52374 6.135 7.38124 8.679ZM9.71674 17.3235C9.71674 18.123 10.3542 18.714 11.2317 18.714C12.1452 18.714 12.7737 18.123 12.7737 17.3235C12.7737 16.4955 12.1437 15.9135 11.2302 15.9135C10.3542 15.9135 9.71674 16.4955 9.71674 17.3235Z" fill="#D4D4D4"/>
</svg>
